<svg width="18" height="18" viewBox="0 0 18 18" xmlns="http://www.w3.org/2000/svg">
    <path d="M17.64 9.2045c0-.6381-.0573-1.2518-.1682-1.8409H9v3.4818h4.8436c-.2086 1.125-.8441 2.0782-1.7777 2.7164v2.2581h2.9087c1.7018-1.5668 2.6836-3.875 2.6836-6.6154z" fill="#4285F4"/>
    <path d="M9 18c2.43 0 4.4673-.806 5.9564-2.1818L12.0436 13.56c-.806.54-1.8368.8618-3.0436.8618-2.3455 0-4.3291-1.5818-5.0359-3.7091H.9564v2.3364C2.4364 16.0982 5.4818 18 9 18z" fill="#34A853"/>
    <path d="M3.9641 10.71c-.1818-.54-.2827-1.1164-.2827-1.71s.1009-1.17.2827-1.71V4.9564H.9564C.3477 6.1732 0 7.5477 0 9s.3477 2.8268.9564 4.0436L3.9641 10.71z" fill="#FBBC05"/>
    <path d="M9 3.5782c1.3227 0 2.5091.4582 3.4409 1.3455l2.5818-2.5818C13.4636.8918 11.4259 0 9 0 5.4818 0 2.4364 1.9018.9564 4.9564L3.9641 7.29C4.6709 5.1618 6.6545 3.5782 9 3.5782z" fill="#EA4335"/>
</svg>